<?xml version="1.0" encoding="UTF-8" standalone="no"?>
<svg
   xmlns:dc="http://purl.org/dc/elements/1.1/"
   xmlns:cc="http://creativecommons.org/ns#"
   xmlns:rdf="http://www.w3.org/1999/02/22-rdf-syntax-ns#"
   xmlns:svg="http://www.w3.org/2000/svg"
   xmlns="http://www.w3.org/2000/svg"
   xmlns:sodipodi="http://sodipodi.sourceforge.net/DTD/sodipodi-0.dtd"
   xmlns:inkscape="http://www.inkscape.org/namespaces/inkscape"
   version="1.1"
   id="svg2"
   xml:space="preserve"
   width="380"
   height="240"
   viewBox="0 0 380 240"
   sodipodi:docname="JB_logo_RGB_research_horz.ai"><metadata
     id="metadata8"><rdf:RDF><cc:Work
         rdf:about=""><dc:format>image/svg+xml</dc:format><dc:type
           rdf:resource="http://purl.org/dc/dcmitype/StillImage" /></cc:Work></rdf:RDF></metadata><defs
     id="defs6"><linearGradient
       x1="0"
       y1="0"
       x2="1"
       y2="0"
       gradientUnits="userSpaceOnUse"
       gradientTransform="matrix(129.92372,50.653076,50.653076,-129.92372,32.708767,18.878889)"
       spreadMethod="pad"
       id="linearGradient36"><stop
         style="stop-opacity:1;stop-color:#fcf84a"
         offset="0"
         id="stop24" /><stop
         style="stop-opacity:1;stop-color:#fcf84a"
         offset="0.0826574"
         id="stop26" /><stop
         style="stop-opacity:1;stop-color:#ff318c"
         offset="0.85419482"
         id="stop28" /><stop
         style="stop-opacity:1;stop-color:#ff318c"
         offset="0.856494"
         id="stop30" /><stop
         style="stop-opacity:1;stop-color:#ff318c"
         offset="0.99957362"
         id="stop32" /><stop
         style="stop-opacity:1;stop-color:#ff318c"
         offset="1"
         id="stop34" /></linearGradient><linearGradient
       x1="0"
       y1="0"
       x2="1"
       y2="0"
       gradientUnits="userSpaceOnUse"
       gradientTransform="matrix(76.741219,-65.778183,-65.778183,-76.741219,18.361376,160.25307)"
       spreadMethod="pad"
       id="linearGradient62"><stop
         style="stop-opacity:1;stop-color:#b74af7"
         offset="0"
         id="stop52" /><stop
         style="stop-opacity:1;stop-color:#b74af7"
         offset="0.0826574"
         id="stop54" /><stop
         style="stop-opacity:1;stop-color:#ff318c"
         offset="0.74987569"
         id="stop56" /><stop
         style="stop-opacity:1;stop-color:#ff318c"
         offset="0.751864"
         id="stop58" /><stop
         style="stop-opacity:1;stop-color:#ff318c"
         offset="1"
         id="stop60" /></linearGradient><linearGradient
       x1="0"
       y1="0"
       x2="1"
       y2="0"
       gradientUnits="userSpaceOnUse"
       gradientTransform="matrix(61.586437,87.381813,87.381813,-61.586437,26.345985,15.782412)"
       spreadMethod="pad"
       id="linearGradient90"><stop
         style="stop-opacity:1;stop-color:#fcf84a"
         offset="0"
         id="stop78" /><stop
         style="stop-opacity:1;stop-color:#fcf84a"
         offset="0.0826574"
         id="stop80" /><stop
         style="stop-opacity:1;stop-color:#ff318c"
         offset="0.85419482"
         id="stop82" /><stop
         style="stop-opacity:1;stop-color:#ff318c"
         offset="0.856494"
         id="stop84" /><stop
         style="stop-opacity:1;stop-color:#ff318c"
         offset="0.99957362"
         id="stop86" /><stop
         style="stop-opacity:1;stop-color:#ff318c"
         offset="1"
         id="stop88" /></linearGradient><clipPath
       clipPathUnits="userSpaceOnUse"
       id="clipPath100"><path
         d="M 0,180 H 285 V 0 H 0 Z"
         id="path98" /></clipPath></defs><sodipodi:namedview
     pagecolor="#ffffff"
     bordercolor="#666666"
     borderopacity="1"
     objecttolerance="10"
     gridtolerance="10"
     guidetolerance="10"
     inkscape:pageopacity="0"
     inkscape:pageshadow="2"
     inkscape:window-width="640"
     inkscape:window-height="480"
     id="namedview4" /><g
     id="g10"
     inkscape:groupmode="layer"
     inkscape:label="JB_logo_RGB_research_horz"
     transform="matrix(1.3333333,0,0,-1.3333333,0,240)"><g
       id="g12"><g
         id="g14"><g
           id="g20"><g
             id="g22"><path
               d="m 145.697,81.965 c -2.56,-0.102 -4.979,-0.718 -7.164,-1.744 v 0 l -0.004,0.01 L 28.83,36.173 28.839,36.152 C 28.304,35.877 27.78,35.567 27.282,35.195 v 0 C 22.415,31.568 21.371,24.647 24.953,19.737 v 0 c 2.87,-3.935 7.836,-5.378 12.202,-3.931 v 0 l 10e-4,-0.004 0.112,0.037 c 0.033,0.011 0.065,0.021 0.097,0.033 v 0 l 114.726,29.455 -0.002,0.004 c 7.814,2.496 13.342,9.978 13.003,18.613 v 0 c -0.396,10.109 -8.672,18.035 -18.647,18.036 v 0 c -0.249,0 -0.497,-0.005 -0.748,-0.015"
               style="fill:url(#linearGradient36);stroke:none"
               id="path38" /></g></g></g></g><g
       id="g40"><g
         id="g42"><g
           id="g48"><g
             id="g50"><path
               d="m 15.113,150.709 c -0.157,-5.739 2.93,-10.804 7.581,-13.437 v 0 l -10e-4,-0.004 69.211,-39.173 0.006,0.009 c 1.302,-0.737 2.964,-0.693 4.244,0.256 v 0 c 1.74,1.292 2.109,3.756 0.825,5.505 v 0 c -0.211,0.288 -0.463,0.524 -0.73,0.737 v 0 l 0.005,0.008 -55.803,56.309 -0.011,-0.013 c -2.591,2.584 -6.118,4.23 -10.055,4.338 v 0 c -0.138,0.004 -0.276,0.006 -0.413,0.006 v 0 c -8.025,0.001 -14.639,-6.427 -14.859,-14.541"
               style="fill:url(#linearGradient62);stroke:none"
               id="path64" /></g></g></g></g><g
       id="g66"><g
         id="g68"><g
           id="g74"><g
             id="g76"><path
               d="m 91.505,104.694 c -0.366,-0.271 -0.655,-0.601 -0.898,-0.957 v 0 l -0.017,0.01 -64.93,-70.028 0.003,-0.002 c -3.434,-3.821 -3.851,-9.673 -0.71,-13.98 v 0 c 3.582,-4.91 10.43,-5.951 15.298,-2.324 v 0 c 0.976,0.727 1.791,1.592 2.452,2.542 v 0 l 54.44,79.489 -0.001,10e-4 c 0.827,1.329 0.819,3.082 -0.163,4.42 v 0 c -0.768,1.045 -1.952,1.599 -3.152,1.599 v 0 c -0.808,0 -1.622,-0.251 -2.322,-0.77"
               style="fill:url(#linearGradient90);stroke:none"
               id="path92" /></g></g></g></g><g
       id="g94"><g
         id="g96"
         clip-path="url(#clipPath100)"><path
           d="m 120.107,60.25 h -60 v 60 h 60 z"
           style="fill:#000000;fill-opacity:1;fill-rule:nonzero;stroke:none"
           id="path102" /><path
           d="m 89.141,67.75 h -22.5 v 3.75 h 22.5 z"
           style="fill:#ffffff;fill-opacity:1;fill-rule:nonzero;stroke:none"
           id="path104" /><g
           id="g106"
           transform="translate(65.6929,104.7827)"><path
             d="m 0,0 1.673,1.579 c 0.455,-0.549 0.883,-0.87 1.472,-0.87 0.642,0 1.057,0.442 1.057,1.312 V 7.948 H 6.785 L 6.784,2.007 C 6.784,0.83 6.49,0 5.861,-0.629 5.246,-1.244 4.362,-1.579 3.292,-1.579 1.659,-1.579 0.669,-0.896 0,0"
             style="fill:#ffffff;fill-opacity:1;fill-rule:nonzero;stroke:none"
             id="path108" /></g><g
           id="g110"
           transform="translate(73.6338,112.731)"><path
             d="M 0,0 H 7.534 V -2.194 H 2.569 V -3.626 H 7.065 V -5.673 H 2.569 V -7.159 H 7.601 V -9.367 H 0 Z"
             style="fill:#ffffff;fill-opacity:1;fill-rule:nonzero;stroke:none"
             id="path112" /></g><g
           id="g114"
           transform="translate(84.8374,110.4561)"><path
             d="M 0,0 H -2.796 V 2.275 H 5.406 V 0 H 2.596 V -7.092 H 0 Z"
             style="fill:#ffffff;fill-opacity:1;fill-rule:nonzero;stroke:none"
             id="path116" /></g><g
           id="g118"
           transform="translate(70.8594,94.1162)"><path
             d="m 0,0 h -1.593 v -1.726 h 1.62 c 0.803,0 1.244,0.308 1.244,0.856 v 0.027 C 1.271,-0.334 0.87,0 0,0 m 0.896,2.663 c 0,0.522 -0.414,0.803 -1.177,0.803 H -1.593 V 1.82 h 1.245 c 0.79,0 1.244,0.267 1.244,0.816 z m -5.018,2.89 H 0.294 C 1.472,5.553 2.302,5.259 2.85,4.724 3.225,4.335 3.453,3.84 3.453,3.198 V 3.171 C 3.453,2.087 2.837,1.445 2.007,1.084 3.145,0.709 3.867,0.067 3.867,-1.204 v -0.027 c 0,-1.606 -1.311,-2.582 -3.546,-2.582 h -4.443 z"
             style="fill:#ffffff;fill-opacity:1;fill-rule:nonzero;stroke:none"
             id="path120" /></g><g
           id="g122"
           transform="translate(79.6001,95.1733)"><path
             d="m 0,0 c 0.87,0 1.392,0.428 1.392,1.111 v 0.026 c 0,0.75 -0.549,1.124 -1.405,1.124 h -1.433 l 0,-2.261 z m -4.042,4.496 h 4.149 c 1.432,0 2.422,-0.375 3.051,-1.004 0.549,-0.548 0.83,-1.258 0.83,-2.18 V 1.285 c 0,-1.446 -0.763,-2.396 -1.927,-2.891 L 4.295,-4.871 H 1.312 l -1.887,2.837 h -0.871 v -2.837 h -2.596 z"
             style="fill:#ffffff;fill-opacity:1;fill-rule:nonzero;stroke:none"
             id="path124" /></g><g
           id="g126"
           transform="translate(89.4712,94.0093)"><path
             d="M 0,0 -1.043,2.649 -2.101,0 Z M -2.274,5.727 H 0.228 L 4.215,-3.707 H 1.432 l -0.669,1.686 h -3.626 l -0.67,-1.686 h -2.716 z"
             style="fill:#ffffff;fill-opacity:1;fill-rule:nonzero;stroke:none"
             id="path128" /></g><path
           d="m 94.067,99.696 h 2.596 v -9.367 h -2.596 z"
           style="fill:#ffffff;fill-opacity:1;fill-rule:nonzero;stroke:none"
           id="path130" /><g
           id="g132"
           transform="translate(97.6699,99.6963)"><path
             d="M 0,0 H 2.422 L 5.791,-4.951 V 0 H 8.36 V -9.367 H 6.099 l -3.53,5.138 V -9.367 H 0 Z"
             style="fill:#ffffff;fill-opacity:1;fill-rule:nonzero;stroke:none"
             id="path134" /></g><g
           id="g136"
           transform="translate(106.4722,91.7212)"><path
             d="M 0,0 1.445,1.726 C 2.381,0.99 3.398,0.602 4.482,0.602 c 0.709,0 1.084,0.241 1.084,0.642 v 0.027 c 0,0.401 -0.308,0.602 -1.592,0.91 C 1.98,2.636 0.441,3.198 0.441,5.111 v 0.027 c 0,1.74 1.379,2.998 3.627,2.998 1.592,0 2.836,-0.428 3.853,-1.245 L 6.624,5.058 C 5.767,5.673 4.831,5.981 4.001,5.981 3.372,5.981 3.064,5.727 3.064,5.379 V 5.353 C 3.064,4.924 3.385,4.737 4.697,4.442 6.837,3.974 8.176,3.278 8.176,1.525 V 1.499 C 8.176,-0.415 6.664,-1.552 4.389,-1.552 2.729,-1.552 1.164,-1.03 0,0"
             style="fill:#ffffff;fill-opacity:1;fill-rule:nonzero;stroke:none"
             id="path138" /></g><g
           id="g140"
           transform="translate(148.043,101.1157)"><path
             d="m 0,0 c 3.256,0 5.581,1.675 5.581,4.465 v 0.062 c 0,2.666 -2.046,4.279 -5.55,4.279 h -6.697 l 0,-8.806 z m -9.115,11.069 h 9.332 c 2.667,0 4.806,-0.806 6.171,-2.17 C 7.441,7.845 8.062,6.325 8.062,4.62 V 4.558 c 0,-3.597 -2.481,-5.705 -5.891,-6.325 l 6.666,-8.868 H 5.829 l -6.294,8.434 h -6.201 v -8.434 h -2.449 z"
             style="fill:#000000;fill-opacity:1;fill-rule:nonzero;stroke:none"
             id="path142" /></g><g
           id="g144"
           transform="translate(172.1426,99.3794)"><path
             d="m 0,0 c -0.248,2.915 -1.922,5.457 -5.116,5.457 -2.79,0 -4.899,-2.325 -5.209,-5.457 z m -12.743,-0.93 v 0.062 c 0,4.62 3.256,8.341 7.689,8.341 4.744,0 7.473,-3.783 7.473,-8.465 0,-0.31 0,-0.496 -0.031,-0.775 h -12.713 c 0.342,-3.473 2.791,-5.426 5.643,-5.426 2.202,0 3.752,0.899 5.054,2.263 L 1.86,-6.263 c -1.612,-1.799 -3.565,-3.008 -6.604,-3.008 -4.402,0 -7.999,3.38 -7.999,8.341"
             style="fill:#000000;fill-opacity:1;fill-rule:nonzero;stroke:none"
             id="path146" /></g><g
           id="g148"
           transform="translate(177.1094,92.5273)"><path
             d="m 0,0 1.209,1.706 c 1.737,-1.303 3.659,-2.047 5.551,-2.047 1.922,0 3.317,0.992 3.317,2.543 v 0.061 c 0,1.612 -1.891,2.233 -4,2.822 C 3.566,5.798 0.775,6.667 0.775,9.612 v 0.062 c 0,2.759 2.295,4.589 5.457,4.589 1.954,0 4.124,-0.682 5.768,-1.767 l -1.086,-1.799 c -1.488,0.961 -3.193,1.551 -4.744,1.551 -1.891,0 -3.1,-0.993 -3.1,-2.326 V 9.86 C 3.07,8.34 5.054,7.751 7.193,7.1 9.674,6.356 12.341,5.395 12.341,2.511 V 2.45 c 0,-3.039 -2.512,-4.806 -5.705,-4.806 C 4.341,-2.356 1.799,-1.458 0,0"
             style="fill:#000000;fill-opacity:1;fill-rule:nonzero;stroke:none"
             id="path150" /></g><g
           id="g152"
           transform="translate(205.2041,99.3794)"><path
             d="m 0,0 c -0.248,2.915 -1.923,5.457 -5.116,5.457 -2.791,0 -4.899,-2.325 -5.209,-5.457 z m -12.744,-0.93 v 0.062 c 0,4.62 3.256,8.341 7.69,8.341 4.743,0 7.472,-3.783 7.472,-8.465 0,-0.31 0,-0.496 -0.031,-0.775 h -12.712 c 0.341,-3.473 2.79,-5.426 5.643,-5.426 2.202,0 3.751,0.899 5.054,2.263 L 1.86,-6.263 c -1.612,-1.799 -3.566,-3.008 -6.604,-3.008 -4.403,0 -8,3.38 -8,8.341"
             style="fill:#000000;fill-opacity:1;fill-rule:nonzero;stroke:none"
             id="path154" /></g><g
           id="g156"
           transform="translate(222.1543,96.3721)"><path
             d="m 0,0 v 1.55 c -1.178,0.341 -2.76,0.682 -4.713,0.682 -3.008,0 -4.682,-1.302 -4.682,-3.317 v -0.062 c 0,-2.016 1.861,-3.194 4.031,-3.194 C -2.418,-4.341 0,-2.542 0,0 m -11.813,-1.24 v 0.062 c 0,3.38 2.791,5.178 6.852,5.178 2.046,0 3.504,-0.279 4.93,-0.682 v 0.557 c 0,2.884 -1.767,4.373 -4.775,4.373 -1.891,0 -3.38,-0.497 -4.868,-1.179 l -0.713,1.954 c 1.767,0.806 3.504,1.333 5.829,1.333 2.264,0 4,-0.589 5.178,-1.768 C 1.705,7.503 2.264,5.953 2.264,3.907 v -9.798 h -2.295 v 2.418 c -1.116,-1.457 -2.977,-2.759 -5.798,-2.759 -2.977,0 -5.984,1.705 -5.984,4.992"
             style="fill:#000000;fill-opacity:1;fill-rule:nonzero;stroke:none"
             id="path158" /></g><g
           id="g160"
           transform="translate(229.3223,106.5112)"><path
             d="M 0,0 H 2.388 V -4.186 C 3.565,-1.52 5.891,0.403 8.93,0.279 V -2.295 H 8.744 c -3.504,0 -6.356,-2.511 -6.356,-7.348 V -16.03 H 0 Z"
             style="fill:#000000;fill-opacity:1;fill-rule:nonzero;stroke:none"
             id="path162" /></g><g
           id="g164"
           transform="translate(240.0728,98.4185)"><path
             d="m 0,0 v 0.062 c 0,4.527 3.535,8.372 8.216,8.372 3.039,0 4.93,-1.272 6.419,-2.853 L 13.053,3.907 C 11.782,5.24 10.356,6.325 8.186,6.325 4.93,6.325 2.45,3.565 2.45,0.124 V 0.062 c 0,-3.473 2.542,-6.232 5.89,-6.232 2.047,0 3.628,1.023 4.9,2.387 l 1.519,-1.426 C 13.146,-7.007 11.224,-8.31 8.216,-8.31 3.535,-8.31 0,-4.496 0,0"
             style="fill:#000000;fill-opacity:1;fill-rule:nonzero;stroke:none"
             id="path166" /></g><g
           id="g168"
           transform="translate(258.3784,113.1152)"><path
             d="m 0,0 h 2.387 v -9.395 c 1.055,1.736 2.729,3.132 5.488,3.132 3.876,0 6.14,-2.605 6.14,-6.418 v -9.953 h -2.388 v 9.363 c 0,2.977 -1.612,4.837 -4.434,4.837 -2.759,0 -4.806,-2.015 -4.806,-5.023 v -9.177 H 0 Z"
             style="fill:#000000;fill-opacity:1;fill-rule:nonzero;stroke:none"
             id="path170" /></g></g></g></g></svg>
